# xmcd CD database file
#
# Track frame offsets:
#	150
#	14149
#	26898
#	40731
#	66956
#	81347
#	94862
#	113770
#	129026
#	141762
#	161333
#	184928
#	196854
#
# Disc length: 2878 seconds
#
# Revision: 0
# Processed by: cddbd v1.5.1PL2 Copyright (c) Steve Scherf et al.
# Submitted via: CDex 1.51
#
DISCID=ad0b3c0d
DTITLE=Various Artist - The Motor City: Rhythm and Blues Pioneers
DYEAR=2002
DGENRE=Blues
TTITLE0=Sugarlove Baby - Joe Weaver
TTITLE1=I'm Sorry - Kenny Martin
TTITLE2=Making Up For Lost Time - Stanley Mitchell
TTITLE3=I Found A Love - Joe Weaver, Stanley Mitchell and Kenny Martin
TTITLE4=Blackjack Baby - Kenny Martin
TTITLE5=Four O'Clock In The Morning - Stanley Mitchell
TTITLE6=Soft Pillow - Joe Weaver
TTITLE7=All I Can Do - Kenny Martin
TTITLE8=Motor City Man - Stanley Mitchell, Kenny Martin and Joe Weaver
TTITLE9=Reconsider You - Stanley Mitchell
TTITLE10=I'll Be A Man For You - Joe Weaver
TTITLE11=Sweeter Than Honey - Kenny Martin
TTITLE12=A Memory Walked Through The Door - Stanley Mitchell
EXTD=YEAR: 2002
EXTT0=
EXTT1=
EXTT2=
EXTT3=
EXTT4=
EXTT5=
EXTT6=
EXTT7=
EXTT8=
EXTT9=
EXTT10=
EXTT11=
EXTT12=
PLAYORDER=
